<mxfile host="app.diagrams.net" agent="Mozilla/5.0 (X11; Ubuntu; Linux x86_64; rv:136.0) Gecko/20100101 Firefox/136.0" version="26.2.4">
  <diagram name="Page-1" id="fBV5BvZvQ8C4kAFxuepz">
    <mxGraphModel dx="948" dy="621" grid="1" gridSize="10" guides="1" tooltips="1" connect="1" arrows="1" fold="1" page="1" pageScale="1" pageWidth="850" pageHeight="1100" math="0" shadow="0">
      <root>
        <mxCell id="0" />
        <mxCell id="1" parent="0" />
        <mxCell id="wKGEmRg-Pk_KjBMbVcqJ-1" value="Source Chain" style="shape=umlActor;verticalLabelPosition=bottom;verticalAlign=top;html=1;outlineConnect=0;" vertex="1" parent="1">
          <mxGeometry x="40" y="80" width="30" height="60" as="geometry" />
        </mxCell>
        <mxCell id="wKGEmRg-Pk_KjBMbVcqJ-5" value="Attestor" style="shape=umlActor;verticalLabelPosition=bottom;verticalAlign=top;html=1;outlineConnect=0;" vertex="1" parent="1">
          <mxGeometry x="210" y="80" width="30" height="60" as="geometry" />
        </mxCell>
        <mxCell id="wKGEmRg-Pk_KjBMbVcqJ-6" value="Node" style="shape=umlActor;verticalLabelPosition=bottom;verticalAlign=top;html=1;outlineConnect=0;" vertex="1" parent="1">
          <mxGeometry x="410" y="80" width="30" height="60" as="geometry" />
        </mxCell>
        <mxCell id="wKGEmRg-Pk_KjBMbVcqJ-7" value="Node" style="shape=umlActor;verticalLabelPosition=bottom;verticalAlign=top;html=1;outlineConnect=0;" vertex="1" parent="1">
          <mxGeometry x="590" y="80" width="30" height="60" as="geometry" />
        </mxCell>
        <mxCell id="wKGEmRg-Pk_KjBMbVcqJ-8" value="" style="endArrow=none;html=1;rounded=0;" edge="1" parent="1">
          <mxGeometry width="50" height="50" relative="1" as="geometry">
            <mxPoint x="60" y="780" as="sourcePoint" />
            <mxPoint x="60" y="160" as="targetPoint" />
          </mxGeometry>
        </mxCell>
        <mxCell id="wKGEmRg-Pk_KjBMbVcqJ-9" value="" style="endArrow=none;html=1;rounded=0;" edge="1" parent="1">
          <mxGeometry width="50" height="50" relative="1" as="geometry">
            <mxPoint x="220" y="640" as="sourcePoint" />
            <mxPoint x="220" y="160" as="targetPoint" />
          </mxGeometry>
        </mxCell>
        <mxCell id="wKGEmRg-Pk_KjBMbVcqJ-10" value="" style="endArrow=classic;html=1;rounded=0;" edge="1" parent="1">
          <mxGeometry width="50" height="50" relative="1" as="geometry">
            <mxPoint x="60" y="180" as="sourcePoint" />
            <mxPoint x="220" y="200" as="targetPoint" />
          </mxGeometry>
        </mxCell>
        <mxCell id="wKGEmRg-Pk_KjBMbVcqJ-12" value="Source Chain Block" style="rounded=0;whiteSpace=wrap;html=1;" vertex="1" parent="1">
          <mxGeometry x="80" y="160" width="120" height="50" as="geometry" />
        </mxCell>
        <mxCell id="wKGEmRg-Pk_KjBMbVcqJ-14" value="" style="endArrow=none;html=1;rounded=0;" edge="1" parent="1">
          <mxGeometry width="50" height="50" relative="1" as="geometry">
            <mxPoint x="420" y="640" as="sourcePoint" />
            <mxPoint x="420" y="160" as="targetPoint" />
          </mxGeometry>
        </mxCell>
        <mxCell id="wKGEmRg-Pk_KjBMbVcqJ-16" value="" style="endArrow=classic;html=1;rounded=0;" edge="1" parent="1">
          <mxGeometry width="50" height="50" relative="1" as="geometry">
            <mxPoint x="220" y="220" as="sourcePoint" />
            <mxPoint x="420" y="240" as="targetPoint" />
          </mxGeometry>
        </mxCell>
        <mxCell id="wKGEmRg-Pk_KjBMbVcqJ-17" value="Extended Vote" style="rounded=0;whiteSpace=wrap;html=1;" vertex="1" parent="1">
          <mxGeometry x="250" y="210" width="120" height="40" as="geometry" />
        </mxCell>
        <mxCell id="wKGEmRg-Pk_KjBMbVcqJ-20" value="" style="endArrow=none;html=1;rounded=0;" edge="1" parent="1">
          <mxGeometry width="50" height="50" relative="1" as="geometry">
            <mxPoint x="610" y="780" as="sourcePoint" />
            <mxPoint x="610" y="160" as="targetPoint" />
          </mxGeometry>
        </mxCell>
        <mxCell id="wKGEmRg-Pk_KjBMbVcqJ-33" value="Vote propagation protocol" style="swimlane;whiteSpace=wrap;html=1;" vertex="1" parent="1">
          <mxGeometry x="420" y="210" width="190" height="290" as="geometry" />
        </mxCell>
        <mxCell id="wKGEmRg-Pk_KjBMbVcqJ-22" value="" style="endArrow=classic;html=1;rounded=0;" edge="1" parent="wKGEmRg-Pk_KjBMbVcqJ-33">
          <mxGeometry width="50" height="50" relative="1" as="geometry">
            <mxPoint y="70" as="sourcePoint" />
            <mxPoint x="190" y="90" as="targetPoint" />
          </mxGeometry>
        </mxCell>
        <mxCell id="wKGEmRg-Pk_KjBMbVcqJ-25" value="" style="endArrow=classic;html=1;rounded=0;" edge="1" parent="wKGEmRg-Pk_KjBMbVcqJ-33">
          <mxGeometry width="50" height="50" relative="1" as="geometry">
            <mxPoint y="120" as="sourcePoint" />
            <mxPoint x="190" y="140" as="targetPoint" />
          </mxGeometry>
        </mxCell>
        <mxCell id="wKGEmRg-Pk_KjBMbVcqJ-27" value="" style="endArrow=classic;html=1;rounded=0;exitX=1;exitY=0.5;exitDx=0;exitDy=0;" edge="1" parent="wKGEmRg-Pk_KjBMbVcqJ-33" source="wKGEmRg-Pk_KjBMbVcqJ-33">
          <mxGeometry width="50" height="50" relative="1" as="geometry">
            <mxPoint x="190" y="170" as="sourcePoint" />
            <mxPoint y="210" as="targetPoint" />
          </mxGeometry>
        </mxCell>
        <mxCell id="wKGEmRg-Pk_KjBMbVcqJ-30" value="" style="endArrow=classic;html=1;rounded=0;" edge="1" parent="wKGEmRg-Pk_KjBMbVcqJ-33">
          <mxGeometry width="50" height="50" relative="1" as="geometry">
            <mxPoint y="230" as="sourcePoint" />
            <mxPoint x="190" y="260" as="targetPoint" />
          </mxGeometry>
        </mxCell>
        <mxCell id="wKGEmRg-Pk_KjBMbVcqJ-32" value="Continuity Proof" style="rounded=0;whiteSpace=wrap;html=1;" vertex="1" parent="wKGEmRg-Pk_KjBMbVcqJ-33">
          <mxGeometry x="40" y="220" width="120" height="50" as="geometry" />
        </mxCell>
        <mxCell id="wKGEmRg-Pk_KjBMbVcqJ-37" value="Continuity Proof Available (Gossip)" style="rounded=0;whiteSpace=wrap;html=1;" vertex="1" parent="wKGEmRg-Pk_KjBMbVcqJ-33">
          <mxGeometry x="40" y="100" width="120" height="50" as="geometry" />
        </mxCell>
        <mxCell id="wKGEmRg-Pk_KjBMbVcqJ-29" value="Continuity Proof Request" style="rounded=0;whiteSpace=wrap;html=1;" vertex="1" parent="wKGEmRg-Pk_KjBMbVcqJ-33">
          <mxGeometry x="40" y="160" width="120" height="50" as="geometry" />
        </mxCell>
        <mxCell id="wKGEmRg-Pk_KjBMbVcqJ-36" value="Vote (Gossip)" style="rounded=0;whiteSpace=wrap;html=1;" vertex="1" parent="1">
          <mxGeometry x="460" y="250" width="120" height="50" as="geometry" />
        </mxCell>
        <mxCell id="wKGEmRg-Pk_KjBMbVcqJ-38" value="" style="endArrow=classic;html=1;rounded=0;" edge="1" parent="1">
          <mxGeometry width="50" height="50" relative="1" as="geometry">
            <mxPoint x="420" y="520" as="sourcePoint" />
            <mxPoint x="220" y="550" as="targetPoint" />
          </mxGeometry>
        </mxCell>
        <mxCell id="wKGEmRg-Pk_KjBMbVcqJ-39" value="Latest Finalized Attestation" style="rounded=0;whiteSpace=wrap;html=1;" vertex="1" parent="1">
          <mxGeometry x="260" y="510" width="120" height="50" as="geometry" />
        </mxCell>
        <mxCell id="wKGEmRg-Pk_KjBMbVcqJ-42" value="Eligibility protocol" style="swimlane;whiteSpace=wrap;html=1;" vertex="1" parent="1">
          <mxGeometry x="220" y="580" width="200" height="200" as="geometry" />
        </mxCell>
        <mxCell id="wKGEmRg-Pk_KjBMbVcqJ-43" value="" style="endArrow=classic;html=1;rounded=0;" edge="1" parent="wKGEmRg-Pk_KjBMbVcqJ-42">
          <mxGeometry width="50" height="50" relative="1" as="geometry">
            <mxPoint y="35" as="sourcePoint" />
            <mxPoint x="200" y="65" as="targetPoint" />
          </mxGeometry>
        </mxCell>
        <mxCell id="wKGEmRg-Pk_KjBMbVcqJ-44" value="Stake Distribution Request" style="rounded=0;whiteSpace=wrap;html=1;" vertex="1" parent="1">
          <mxGeometry x="260" y="610" width="120" height="40" as="geometry" />
        </mxCell>
        <mxCell id="wKGEmRg-Pk_KjBMbVcqJ-46" value="" style="endArrow=classic;html=1;rounded=0;" edge="1" parent="1">
          <mxGeometry width="50" height="50" relative="1" as="geometry">
            <mxPoint x="420" y="680" as="sourcePoint" />
            <mxPoint x="220" y="710" as="targetPoint" />
          </mxGeometry>
        </mxCell>
        <mxCell id="wKGEmRg-Pk_KjBMbVcqJ-47" value="Stake Distribution + Committee Size Response" style="rounded=0;whiteSpace=wrap;html=1;" vertex="1" parent="1">
          <mxGeometry x="260" y="670" width="120" height="60" as="geometry" />
        </mxCell>
      </root>
    </mxGraphModel>
  </diagram>
</mxfile>
